<?xml version="1.0" encoding="utf-8" standalone="no"?>
<!DOCTYPE svg PUBLIC "-//W3C//DTD SVG 1.1//EN"
  "http://www.w3.org/Graphics/SVG/1.1/DTD/svg11.dtd">
<!-- Created with matplotlib (http://matplotlib.org/) -->
<svg height="755pt" version="1.1" viewBox="0 0 1483 755" width="1483pt" xmlns="http://www.w3.org/2000/svg" xmlns:xlink="http://www.w3.org/1999/xlink">
 <defs>
  <style type="text/css">
*{stroke-linecap:butt;stroke-linejoin:round;stroke-miterlimit:100000;}
  </style>
 </defs>
 <g id="figure_1">
  <g id="patch_1">
   <path d="M 0 755.820625 
L 1483.725625 755.820625 
L 1483.725625 0 
L 0 0 
z
" style="fill:#ffffff;"/>
  </g>
  <g id="axes_1">
   <g id="LineCollection_1">
    <path clip-path="url(#pa2303a5d40)" d="M 764.890625 115.864018 
L 508.890625 218.721161 
" style="fill:none;stroke:#000000;"/>
    <path clip-path="url(#pa2303a5d40)" d="M 764.890625 115.864018 
L 1020.890625 218.721161 
" style="fill:none;stroke:#000000;"/>
    <path clip-path="url(#pa2303a5d40)" d="M 508.890625 218.721161 
L 380.890625 321.578304 
" style="fill:none;stroke:#000000;"/>
    <path clip-path="url(#pa2303a5d40)" d="M 508.890625 218.721161 
L 636.890625 321.578304 
" style="fill:none;stroke:#000000;"/>
    <path clip-path="url(#pa2303a5d40)" d="M 1020.890625 218.721161 
L 892.890625 321.578304 
" style="fill:none;stroke:#000000;"/>
    <path clip-path="url(#pa2303a5d40)" d="M 1020.890625 218.721161 
L 1148.890625 321.578304 
" style="fill:none;stroke:#000000;"/>
    <path clip-path="url(#pa2303a5d40)" d="M 380.890625 321.578304 
L 444.890625 424.435446 
" style="fill:none;stroke:#000000;"/>
    <path clip-path="url(#pa2303a5d40)" d="M 380.890625 321.578304 
L 316.890625 424.435446 
" style="fill:none;stroke:#000000;"/>
    <path clip-path="url(#pa2303a5d40)" d="M 636.890625 321.578304 
L 700.890625 424.435446 
" style="fill:none;stroke:#000000;"/>
    <path clip-path="url(#pa2303a5d40)" d="M 636.890625 321.578304 
L 572.890625 424.435446 
" style="fill:none;stroke:#000000;"/>
    <path clip-path="url(#pa2303a5d40)" d="M 892.890625 321.578304 
L 828.890625 424.435446 
" style="fill:none;stroke:#000000;"/>
    <path clip-path="url(#pa2303a5d40)" d="M 892.890625 321.578304 
L 956.890625 424.435446 
" style="fill:none;stroke:#000000;"/>
    <path clip-path="url(#pa2303a5d40)" d="M 1148.890625 321.578304 
L 1084.890625 424.435446 
" style="fill:none;stroke:#000000;"/>
    <path clip-path="url(#pa2303a5d40)" d="M 1148.890625 321.578304 
L 1212.890625 424.435446 
" style="fill:none;stroke:#000000;"/>
    <path clip-path="url(#pa2303a5d40)" d="M 316.890625 424.435446 
L 348.890625 527.292589 
" style="fill:none;stroke:#000000;"/>
    <path clip-path="url(#pa2303a5d40)" d="M 316.890625 424.435446 
L 284.890625 527.292589 
" style="fill:none;stroke:#000000;"/>
    <path clip-path="url(#pa2303a5d40)" d="M 444.890625 424.435446 
L 412.890625 527.292589 
" style="fill:none;stroke:#000000;"/>
    <path clip-path="url(#pa2303a5d40)" d="M 444.890625 424.435446 
L 476.890625 527.292589 
" style="fill:none;stroke:#000000;"/>
    <path clip-path="url(#pa2303a5d40)" d="M 572.890625 424.435446 
L 604.890625 527.292589 
" style="fill:none;stroke:#000000;"/>
    <path clip-path="url(#pa2303a5d40)" d="M 572.890625 424.435446 
L 540.890625 527.292589 
" style="fill:none;stroke:#000000;"/>
    <path clip-path="url(#pa2303a5d40)" d="M 700.890625 424.435446 
L 668.890625 527.292589 
" style="fill:none;stroke:#000000;"/>
    <path clip-path="url(#pa2303a5d40)" d="M 700.890625 424.435446 
L 732.890625 527.292589 
" style="fill:none;stroke:#000000;"/>
    <path clip-path="url(#pa2303a5d40)" d="M 828.890625 424.435446 
L 860.890625 527.292589 
" style="fill:none;stroke:#000000;"/>
    <path clip-path="url(#pa2303a5d40)" d="M 828.890625 424.435446 
L 796.890625 527.292589 
" style="fill:none;stroke:#000000;"/>
    <path clip-path="url(#pa2303a5d40)" d="M 956.890625 424.435446 
L 924.890625 527.292589 
" style="fill:none;stroke:#000000;"/>
    <path clip-path="url(#pa2303a5d40)" d="M 956.890625 424.435446 
L 988.890625 527.292589 
" style="fill:none;stroke:#000000;"/>
    <path clip-path="url(#pa2303a5d40)" d="M 1084.890625 424.435446 
L 1052.890625 527.292589 
" style="fill:none;stroke:#000000;"/>
    <path clip-path="url(#pa2303a5d40)" d="M 1084.890625 424.435446 
L 1116.890625 527.292589 
" style="fill:none;stroke:#000000;"/>
    <path clip-path="url(#pa2303a5d40)" d="M 1212.890625 424.435446 
L 1244.890625 527.292589 
" style="fill:none;stroke:#000000;"/>
    <path clip-path="url(#pa2303a5d40)" d="M 1212.890625 424.435446 
L 1180.890625 527.292589 
" style="fill:none;stroke:#000000;"/>
    <path clip-path="url(#pa2303a5d40)" d="M 284.890625 527.292589 
L 300.890625 630.149732 
" style="fill:none;stroke:#000000;"/>
    <path clip-path="url(#pa2303a5d40)" d="M 284.890625 527.292589 
L 268.890625 630.149732 
" style="fill:none;stroke:#000000;"/>
    <path clip-path="url(#pa2303a5d40)" d="M 348.890625 527.292589 
L 332.890625 630.149732 
" style="fill:none;stroke:#000000;"/>
    <path clip-path="url(#pa2303a5d40)" d="M 348.890625 527.292589 
L 364.890625 630.149732 
" style="fill:none;stroke:#000000;"/>
    <path clip-path="url(#pa2303a5d40)" d="M 412.890625 527.292589 
L 396.890625 630.149732 
" style="fill:none;stroke:#000000;"/>
    <path clip-path="url(#pa2303a5d40)" d="M 412.890625 527.292589 
L 428.890625 630.149732 
" style="fill:none;stroke:#000000;"/>
    <path clip-path="url(#pa2303a5d40)" d="M 476.890625 527.292589 
L 460.890625 630.149732 
" style="fill:none;stroke:#000000;"/>
    <path clip-path="url(#pa2303a5d40)" d="M 476.890625 527.292589 
L 492.890625 630.149732 
" style="fill:none;stroke:#000000;"/>
    <path clip-path="url(#pa2303a5d40)" d="M 540.890625 527.292589 
L 556.890625 630.149732 
" style="fill:none;stroke:#000000;"/>
    <path clip-path="url(#pa2303a5d40)" d="M 540.890625 527.292589 
L 524.890625 630.149732 
" style="fill:none;stroke:#000000;"/>
    <path clip-path="url(#pa2303a5d40)" d="M 604.890625 527.292589 
L 620.890625 630.149732 
" style="fill:none;stroke:#000000;"/>
    <path clip-path="url(#pa2303a5d40)" d="M 604.890625 527.292589 
L 588.890625 630.149732 
" style="fill:none;stroke:#000000;"/>
    <path clip-path="url(#pa2303a5d40)" d="M 668.890625 527.292589 
L 652.890625 630.149732 
" style="fill:none;stroke:#000000;"/>
    <path clip-path="url(#pa2303a5d40)" d="M 668.890625 527.292589 
L 684.890625 630.149732 
" style="fill:none;stroke:#000000;"/>
    <path clip-path="url(#pa2303a5d40)" d="M 732.890625 527.292589 
L 716.890625 630.149732 
" style="fill:none;stroke:#000000;"/>
    <path clip-path="url(#pa2303a5d40)" d="M 732.890625 527.292589 
L 748.890625 630.149732 
" style="fill:none;stroke:#000000;"/>
    <path clip-path="url(#pa2303a5d40)" d="M 796.890625 527.292589 
L 812.890625 630.149732 
" style="fill:none;stroke:#000000;"/>
    <path clip-path="url(#pa2303a5d40)" d="M 796.890625 527.292589 
L 780.890625 630.149732 
" style="fill:none;stroke:#000000;"/>
    <path clip-path="url(#pa2303a5d40)" d="M 860.890625 527.292589 
L 844.890625 630.149732 
" style="fill:none;stroke:#000000;"/>
    <path clip-path="url(#pa2303a5d40)" d="M 860.890625 527.292589 
L 876.890625 630.149732 
" style="fill:none;stroke:#000000;"/>
    <path clip-path="url(#pa2303a5d40)" d="M 924.890625 527.292589 
L 940.890625 630.149732 
" style="fill:none;stroke:#000000;"/>
    <path clip-path="url(#pa2303a5d40)" d="M 924.890625 527.292589 
L 908.890625 630.149732 
" style="fill:none;stroke:#000000;"/>
    <path clip-path="url(#pa2303a5d40)" d="M 988.890625 527.292589 
L 972.890625 630.149732 
" style="fill:none;stroke:#000000;"/>
    <path clip-path="url(#pa2303a5d40)" d="M 988.890625 527.292589 
L 1004.890625 630.149732 
" style="fill:none;stroke:#000000;"/>
    <path clip-path="url(#pa2303a5d40)" d="M 1052.890625 527.292589 
L 1068.890625 630.149732 
" style="fill:none;stroke:#000000;"/>
    <path clip-path="url(#pa2303a5d40)" d="M 1052.890625 527.292589 
L 1036.890625 630.149732 
" style="fill:none;stroke:#000000;"/>
    <path clip-path="url(#pa2303a5d40)" d="M 1116.890625 527.292589 
L 1100.890625 630.149732 
" style="fill:none;stroke:#000000;"/>
    <path clip-path="url(#pa2303a5d40)" d="M 1116.890625 527.292589 
L 1132.890625 630.149732 
" style="fill:none;stroke:#000000;"/>
    <path clip-path="url(#pa2303a5d40)" d="M 1180.890625 527.292589 
L 1164.890625 630.149732 
" style="fill:none;stroke:#000000;"/>
    <path clip-path="url(#pa2303a5d40)" d="M 1180.890625 527.292589 
L 1196.890625 630.149732 
" style="fill:none;stroke:#000000;"/>
    <path clip-path="url(#pa2303a5d40)" d="M 1244.890625 527.292589 
L 1260.890625 630.149732 
" style="fill:none;stroke:#000000;"/>
    <path clip-path="url(#pa2303a5d40)" d="M 1244.890625 527.292589 
L 1228.890625 630.149732 
" style="fill:none;stroke:#000000;"/>
   </g>
   <g id="PathCollection_1">
    <defs>
     <path d="M 0 15.811388 
C 4.193229 15.811388 8.215279 14.145401 11.18034 11.18034 
C 14.145401 8.215279 15.811388 4.193229 15.811388 0 
C 15.811388 -4.193229 14.145401 -8.215279 11.18034 -11.18034 
C 8.215279 -14.145401 4.193229 -15.811388 0 -15.811388 
C -4.193229 -15.811388 -8.215279 -14.145401 -11.18034 -11.18034 
C -14.145401 -8.215279 -15.811388 -4.193229 -15.811388 0 
C -15.811388 4.193229 -14.145401 8.215279 -11.18034 11.18034 
C -8.215279 14.145401 -4.193229 15.811388 0 15.811388 
z
" id="m0008fcf9f1" style="stroke:#000000;"/>
    </defs>
    <g clip-path="url(#pa2303a5d40)">
     <use style="fill:#ff0000;stroke:#000000;" x="764.890625" xlink:href="#m0008fcf9f1" y="115.864017857"/>
     <use style="fill:#ff0000;stroke:#000000;" x="508.890625" xlink:href="#m0008fcf9f1" y="218.721160714"/>
     <use style="fill:#ff0000;stroke:#000000;" x="1020.890625" xlink:href="#m0008fcf9f1" y="218.721160714"/>
     <use style="fill:#ff0000;stroke:#000000;" x="380.890625" xlink:href="#m0008fcf9f1" y="321.578303571"/>
     <use style="fill:#ff0000;stroke:#000000;" x="636.890625" xlink:href="#m0008fcf9f1" y="321.578303571"/>
     <use style="fill:#ff0000;stroke:#000000;" x="892.890625" xlink:href="#m0008fcf9f1" y="321.578303571"/>
     <use style="fill:#ff0000;stroke:#000000;" x="1148.890625" xlink:href="#m0008fcf9f1" y="321.578303571"/>
     <use style="fill:#ff0000;stroke:#000000;" x="316.890625" xlink:href="#m0008fcf9f1" y="424.435446429"/>
     <use style="fill:#ff0000;stroke:#000000;" x="444.890625" xlink:href="#m0008fcf9f1" y="424.435446429"/>
     <use style="fill:#ff0000;stroke:#000000;" x="572.890625" xlink:href="#m0008fcf9f1" y="424.435446429"/>
     <use style="fill:#ff0000;stroke:#000000;" x="700.890625" xlink:href="#m0008fcf9f1" y="424.435446429"/>
     <use style="fill:#ff0000;stroke:#000000;" x="828.890625" xlink:href="#m0008fcf9f1" y="424.435446429"/>
     <use style="fill:#ff0000;stroke:#000000;" x="956.890625" xlink:href="#m0008fcf9f1" y="424.435446429"/>
     <use style="fill:#ff0000;stroke:#000000;" x="1084.890625" xlink:href="#m0008fcf9f1" y="424.435446429"/>
     <use style="fill:#ff0000;stroke:#000000;" x="1212.890625" xlink:href="#m0008fcf9f1" y="424.435446429"/>
     <use style="fill:#ff0000;stroke:#000000;" x="284.890625" xlink:href="#m0008fcf9f1" y="527.292589286"/>
     <use style="fill:#ff0000;stroke:#000000;" x="348.890625" xlink:href="#m0008fcf9f1" y="527.292589286"/>
     <use style="fill:#ff0000;stroke:#000000;" x="412.890625" xlink:href="#m0008fcf9f1" y="527.292589286"/>
     <use style="fill:#ff0000;stroke:#000000;" x="476.890625" xlink:href="#m0008fcf9f1" y="527.292589286"/>
     <use style="fill:#ff0000;stroke:#000000;" x="540.890625" xlink:href="#m0008fcf9f1" y="527.292589286"/>
     <use style="fill:#ff0000;stroke:#000000;" x="604.890625" xlink:href="#m0008fcf9f1" y="527.292589286"/>
     <use style="fill:#ff0000;stroke:#000000;" x="668.890625" xlink:href="#m0008fcf9f1" y="527.292589286"/>
     <use style="fill:#ff0000;stroke:#000000;" x="732.890625" xlink:href="#m0008fcf9f1" y="527.292589286"/>
     <use style="fill:#ff0000;stroke:#000000;" x="796.890625" xlink:href="#m0008fcf9f1" y="527.292589286"/>
     <use style="fill:#ff0000;stroke:#000000;" x="860.890625" xlink:href="#m0008fcf9f1" y="527.292589286"/>
     <use style="fill:#ff0000;stroke:#000000;" x="924.890625" xlink:href="#m0008fcf9f1" y="527.292589286"/>
     <use style="fill:#ff0000;stroke:#000000;" x="988.890625" xlink:href="#m0008fcf9f1" y="527.292589286"/>
     <use style="fill:#ff0000;stroke:#000000;" x="1052.890625" xlink:href="#m0008fcf9f1" y="527.292589286"/>
     <use style="fill:#ff0000;stroke:#000000;" x="1116.890625" xlink:href="#m0008fcf9f1" y="527.292589286"/>
     <use style="fill:#ff0000;stroke:#000000;" x="1180.890625" xlink:href="#m0008fcf9f1" y="527.292589286"/>
     <use style="fill:#ff0000;stroke:#000000;" x="1244.890625" xlink:href="#m0008fcf9f1" y="527.292589286"/>
     <use style="fill:#ff0000;stroke:#000000;" x="268.890625" xlink:href="#m0008fcf9f1" y="630.149732143"/>
     <use style="fill:#ff0000;stroke:#000000;" x="300.890625" xlink:href="#m0008fcf9f1" y="630.149732143"/>
     <use style="fill:#ff0000;stroke:#000000;" x="332.890625" xlink:href="#m0008fcf9f1" y="630.149732143"/>
     <use style="fill:#ff0000;stroke:#000000;" x="364.890625" xlink:href="#m0008fcf9f1" y="630.149732143"/>
     <use style="fill:#ff0000;stroke:#000000;" x="396.890625" xlink:href="#m0008fcf9f1" y="630.149732143"/>
     <use style="fill:#ff0000;stroke:#000000;" x="428.890625" xlink:href="#m0008fcf9f1" y="630.149732143"/>
     <use style="fill:#ff0000;stroke:#000000;" x="460.890625" xlink:href="#m0008fcf9f1" y="630.149732143"/>
     <use style="fill:#ff0000;stroke:#000000;" x="492.890625" xlink:href="#m0008fcf9f1" y="630.149732143"/>
     <use style="fill:#ff0000;stroke:#000000;" x="524.890625" xlink:href="#m0008fcf9f1" y="630.149732143"/>
     <use style="fill:#ff0000;stroke:#000000;" x="556.890625" xlink:href="#m0008fcf9f1" y="630.149732143"/>
     <use style="fill:#ff0000;stroke:#000000;" x="588.890625" xlink:href="#m0008fcf9f1" y="630.149732143"/>
     <use style="fill:#ff0000;stroke:#000000;" x="620.890625" xlink:href="#m0008fcf9f1" y="630.149732143"/>
     <use style="fill:#ff0000;stroke:#000000;" x="652.890625" xlink:href="#m0008fcf9f1" y="630.149732143"/>
     <use style="fill:#ff0000;stroke:#000000;" x="684.890625" xlink:href="#m0008fcf9f1" y="630.149732143"/>
     <use style="fill:#ff0000;stroke:#000000;" x="716.890625" xlink:href="#m0008fcf9f1" y="630.149732143"/>
     <use style="fill:#ff0000;stroke:#000000;" x="748.890625" xlink:href="#m0008fcf9f1" y="630.149732143"/>
     <use style="fill:#ff0000;stroke:#000000;" x="780.890625" xlink:href="#m0008fcf9f1" y="630.149732143"/>
     <use style="fill:#ff0000;stroke:#000000;" x="812.890625" xlink:href="#m0008fcf9f1" y="630.149732143"/>
     <use style="fill:#ff0000;stroke:#000000;" x="844.890625" xlink:href="#m0008fcf9f1" y="630.149732143"/>
     <use style="fill:#ff0000;stroke:#000000;" x="876.890625" xlink:href="#m0008fcf9f1" y="630.149732143"/>
     <use style="fill:#ff0000;stroke:#000000;" x="908.890625" xlink:href="#m0008fcf9f1" y="630.149732143"/>
     <use style="fill:#ff0000;stroke:#000000;" x="940.890625" xlink:href="#m0008fcf9f1" y="630.149732143"/>
     <use style="fill:#ff0000;stroke:#000000;" x="972.890625" xlink:href="#m0008fcf9f1" y="630.149732143"/>
     <use style="fill:#ff0000;stroke:#000000;" x="1004.890625" xlink:href="#m0008fcf9f1" y="630.149732143"/>
     <use style="fill:#ff0000;stroke:#000000;" x="1036.890625" xlink:href="#m0008fcf9f1" y="630.149732143"/>
     <use style="fill:#ff0000;stroke:#000000;" x="1068.890625" xlink:href="#m0008fcf9f1" y="630.149732143"/>
     <use style="fill:#ff0000;stroke:#000000;" x="1100.890625" xlink:href="#m0008fcf9f1" y="630.149732143"/>
     <use style="fill:#ff0000;stroke:#000000;" x="1132.890625" xlink:href="#m0008fcf9f1" y="630.149732143"/>
     <use style="fill:#ff0000;stroke:#000000;" x="1164.890625" xlink:href="#m0008fcf9f1" y="630.149732143"/>
     <use style="fill:#ff0000;stroke:#000000;" x="1196.890625" xlink:href="#m0008fcf9f1" y="630.149732143"/>
     <use style="fill:#ff0000;stroke:#000000;" x="1228.890625" xlink:href="#m0008fcf9f1" y="630.149732143"/>
     <use style="fill:#ff0000;stroke:#000000;" x="1260.890625" xlink:href="#m0008fcf9f1" y="630.149732143"/>
    </g>
   </g>
   <g id="text_1">
    <g clip-path="url(#pa2303a5d40)">
     <!-- $\frac{1}{1}$ -->
     <defs>
      <path d="M 9.28125 0 
L 9.28125 3.515625 
Q 21.78125 3.515625 21.78125 6.6875 
L 21.78125 59.1875 
Q 16.609375 56.6875 8.6875 56.6875 
L 8.6875 60.203125 
Q 20.953125 60.203125 27.203125 66.609375 
L 28.609375 66.609375 
Q 28.953125 66.609375 29.265625 66.328125 
Q 29.59375 66.0625 29.59375 65.71875 
L 29.59375 6.6875 
Q 29.59375 3.515625 42.09375 3.515625 
L 42.09375 0 
z
" id="Cmr10-31"/>
     </defs>
     <g transform="translate(760.090625 120.264017857)scale(0.2 -0.2)">
      <use transform="translate(0.0 38.3734375)scale(0.7)" xlink:href="#Cmr10-31"/>
      <use transform="translate(0.0 -39.503125)scale(0.7)" xlink:href="#Cmr10-31"/>
      <path d="M 0 13.373437 
L 0 19.623437 
L 35 19.623437 
L 35 13.373437 
L 0 13.373437 
z
"/>
     </g>
    </g>
   </g>
   <g id="text_2">
    <g clip-path="url(#pa2303a5d40)">
     <!-- $\frac{1}{2}$ -->
     <defs>
      <path d="M 4.984375 0 
L 4.984375 2.6875 
Q 4.984375 2.9375 5.171875 3.21875 
L 20.703125 20.40625 
Q 24.21875 24.21875 26.40625 26.796875 
Q 28.609375 29.390625 30.75 32.765625 
Q 32.90625 36.140625 34.15625 39.625 
Q 35.40625 43.109375 35.40625 47.015625 
Q 35.40625 51.125 33.890625 54.859375 
Q 32.375 58.59375 29.375 60.84375 
Q 26.375 63.09375 22.125 63.09375 
Q 17.78125 63.09375 14.3125 60.46875 
Q 10.84375 57.859375 9.421875 53.71875 
Q 9.8125 53.8125 10.5 53.8125 
Q 12.75 53.8125 14.328125 52.296875 
Q 15.921875 50.78125 15.921875 48.390625 
Q 15.921875 46.09375 14.328125 44.5 
Q 12.75 42.921875 10.5 42.921875 
Q 8.15625 42.921875 6.5625 44.546875 
Q 4.984375 46.1875 4.984375 48.390625 
Q 4.984375 52.15625 6.390625 55.4375 
Q 7.8125 58.734375 10.46875 61.296875 
Q 13.140625 63.875 16.484375 65.234375 
Q 19.828125 66.609375 23.578125 66.609375 
Q 29.296875 66.609375 34.21875 64.1875 
Q 39.15625 61.765625 42.03125 57.34375 
Q 44.921875 52.9375 44.921875 47.015625 
Q 44.921875 42.671875 43.015625 38.765625 
Q 41.109375 34.859375 38.125 31.65625 
Q 35.15625 28.46875 30.515625 24.40625 
Q 25.875 20.359375 24.421875 19 
L 13.09375 8.109375 
L 22.703125 8.109375 
Q 29.78125 8.109375 34.546875 8.21875 
Q 39.3125 8.34375 39.59375 8.59375 
Q 40.765625 9.859375 42 17.828125 
L 44.921875 17.828125 
L 42.09375 0 
z
" id="Cmr10-32"/>
     </defs>
     <g transform="translate(504.090625 223.121160714)scale(0.2 -0.2)">
      <use transform="translate(0.0 38.3734375)scale(0.7)" xlink:href="#Cmr10-31"/>
      <use transform="translate(0.0 -39.503125)scale(0.7)" xlink:href="#Cmr10-32"/>
      <path d="M 0 13.373437 
L 0 19.623437 
L 35 19.623437 
L 35 13.373437 
L 0 13.373437 
z
"/>
     </g>
    </g>
   </g>
   <g id="text_3">
    <g clip-path="url(#pa2303a5d40)">
     <!-- $\frac{2}{1}$ -->
     <g transform="translate(1016.090625 223.121160714)scale(0.2 -0.2)">
      <use transform="translate(0.0 38.3734375)scale(0.7)" xlink:href="#Cmr10-32"/>
      <use transform="translate(0.0 -39.503125)scale(0.7)" xlink:href="#Cmr10-31"/>
      <path d="M 0 13.373437 
L 0 19.623437 
L 35 19.623437 
L 35 13.373437 
L 0 13.373437 
z
"/>
     </g>
    </g>
   </g>
   <g id="text_4">
    <g clip-path="url(#pa2303a5d40)">
     <!-- $\frac{1}{3}$ -->
     <defs>
      <path d="M 9.515625 7.71875 
Q 11.859375 4.296875 15.8125 2.640625 
Q 19.78125 0.984375 24.3125 0.984375 
Q 30.125 0.984375 32.5625 5.9375 
Q 35.015625 10.890625 35.015625 17.1875 
Q 35.015625 20.015625 34.5 22.84375 
Q 33.984375 25.6875 32.765625 28.125 
Q 31.546875 30.5625 29.421875 32.03125 
Q 27.296875 33.5 24.21875 33.5 
L 17.578125 33.5 
Q 16.703125 33.5 16.703125 34.421875 
L 16.703125 35.296875 
Q 16.703125 36.078125 17.578125 36.078125 
L 23.09375 36.53125 
Q 26.609375 36.53125 28.921875 39.15625 
Q 31.25 41.796875 32.328125 45.578125 
Q 33.40625 49.359375 33.40625 52.78125 
Q 33.40625 57.5625 31.15625 60.640625 
Q 28.90625 63.71875 24.3125 63.71875 
Q 20.515625 63.71875 17.046875 62.28125 
Q 13.578125 60.84375 11.53125 57.90625 
Q 11.71875 57.953125 11.859375 57.984375 
Q 12.015625 58.015625 12.203125 58.015625 
Q 14.453125 58.015625 15.96875 56.453125 
Q 17.484375 54.890625 17.484375 52.6875 
Q 17.484375 50.53125 15.96875 48.96875 
Q 14.453125 47.40625 12.203125 47.40625 
Q 10.015625 47.40625 8.453125 48.96875 
Q 6.890625 50.53125 6.890625 52.6875 
Q 6.890625 56.984375 9.46875 60.15625 
Q 12.0625 63.328125 16.140625 64.96875 
Q 20.21875 66.609375 24.3125 66.609375 
Q 27.34375 66.609375 30.703125 65.703125 
Q 34.078125 64.796875 36.8125 63.109375 
Q 39.546875 61.421875 41.28125 58.78125 
Q 43.015625 56.15625 43.015625 52.78125 
Q 43.015625 48.578125 41.140625 45.015625 
Q 39.265625 41.453125 35.984375 38.859375 
Q 32.71875 36.28125 28.8125 35.015625 
Q 33.15625 34.1875 37.0625 31.734375 
Q 40.96875 29.296875 43.328125 25.484375 
Q 45.703125 21.6875 45.703125 17.28125 
Q 45.703125 11.765625 42.671875 7.296875 
Q 39.65625 2.828125 34.71875 0.3125 
Q 29.78125 -2.203125 24.3125 -2.203125 
Q 19.625 -2.203125 14.90625 -0.40625 
Q 10.203125 1.375 7.203125 4.9375 
Q 4.203125 8.5 4.203125 13.484375 
Q 4.203125 15.96875 5.859375 17.625 
Q 7.515625 19.28125 10.015625 19.28125 
Q 11.625 19.28125 12.96875 18.53125 
Q 14.3125 17.78125 15.0625 16.40625 
Q 15.828125 15.046875 15.828125 13.484375 
Q 15.828125 11.03125 14.109375 9.375 
Q 12.40625 7.71875 10.015625 7.71875 
z
" id="Cmr10-33"/>
     </defs>
     <g transform="translate(376.090625 325.878303571)scale(0.2 -0.2)">
      <use transform="translate(0.0 38.3734375)scale(0.7)" xlink:href="#Cmr10-31"/>
      <use transform="translate(0.0 -39.503125)scale(0.7)" xlink:href="#Cmr10-33"/>
      <path d="M 0 13.373437 
L 0 19.623437 
L 35 19.623437 
L 35 13.373437 
L 0 13.373437 
z
"/>
     </g>
    </g>
   </g>
   <g id="text_5">
    <g clip-path="url(#pa2303a5d40)">
     <!-- $\frac{2}{3}$ -->
     <g transform="translate(632.090625 325.878303571)scale(0.2 -0.2)">
      <use transform="translate(0.0 38.3734375)scale(0.7)" xlink:href="#Cmr10-32"/>
      <use transform="translate(0.0 -39.503125)scale(0.7)" xlink:href="#Cmr10-33"/>
      <path d="M 0 13.373437 
L 0 19.623437 
L 35 19.623437 
L 35 13.373437 
L 0 13.373437 
z
"/>
     </g>
    </g>
   </g>
   <g id="text_6">
    <g clip-path="url(#pa2303a5d40)">
     <!-- $\frac{3}{2}$ -->
     <g transform="translate(888.090625 326.078303571)scale(0.2 -0.2)">
      <use transform="translate(0.0 39.3734375)scale(0.7)" xlink:href="#Cmr10-33"/>
      <use transform="translate(0.0 -40.045312499999994)scale(0.7)" xlink:href="#Cmr10-32"/>
      <path d="M 0 12.83125 
L 0 19.08125 
L 35 19.08125 
L 35 12.83125 
L 0 12.83125 
z
"/>
     </g>
    </g>
   </g>
   <g id="text_7">
    <g clip-path="url(#pa2303a5d40)">
     <!-- $\frac{3}{1}$ -->
     <g transform="translate(1144.090625 326.078303571)scale(0.2 -0.2)">
      <use transform="translate(0.0 39.3734375)scale(0.7)" xlink:href="#Cmr10-33"/>
      <use transform="translate(0.0 -40.045312499999994)scale(0.7)" xlink:href="#Cmr10-31"/>
      <path d="M 0 12.83125 
L 0 19.08125 
L 35 19.08125 
L 35 12.83125 
L 0 12.83125 
z
"/>
     </g>
    </g>
   </g>
   <g id="text_8">
    <g clip-path="url(#pa2303a5d40)">
     <!-- $\frac{1}{4}$ -->
     <defs>
      <path d="M 2.78125 16.5 
L 2.78125 20.015625 
L 33.6875 66.109375 
Q 34.03125 66.609375 34.71875 66.609375 
L 36.1875 66.609375 
Q 37.3125 66.609375 37.3125 65.484375 
L 37.3125 20.015625 
L 47.125 20.015625 
L 47.125 16.5 
L 37.3125 16.5 
L 37.3125 6.6875 
Q 37.3125 4.640625 40.234375 4.078125 
Q 43.171875 3.515625 47.015625 3.515625 
L 47.015625 0 
L 19.484375 0 
L 19.484375 3.515625 
Q 23.34375 3.515625 26.265625 4.078125 
Q 29.203125 4.640625 29.203125 6.6875 
L 29.203125 16.5 
z
M 6.109375 20.015625 
L 29.78125 20.015625 
L 29.78125 55.421875 
z
" id="Cmr10-34"/>
     </defs>
     <g transform="translate(312.090625 428.835446429)scale(0.2 -0.2)">
      <use transform="translate(0.0 38.3734375)scale(0.7)" xlink:href="#Cmr10-31"/>
      <use transform="translate(0.0 -39.503125)scale(0.7)" xlink:href="#Cmr10-34"/>
      <path d="M 0 13.373437 
L 0 19.623437 
L 35 19.623437 
L 35 13.373437 
L 0 13.373437 
z
"/>
     </g>
    </g>
   </g>
   <g id="text_9">
    <g clip-path="url(#pa2303a5d40)">
     <!-- $\frac{2}{5}$ -->
     <defs>
      <path d="M 8.6875 11.375 
Q 9.71875 8.453125 11.84375 6.046875 
Q 13.96875 3.65625 16.875 2.3125 
Q 19.78125 0.984375 22.90625 0.984375 
Q 30.125 0.984375 32.859375 6.59375 
Q 35.59375 12.203125 35.59375 20.21875 
Q 35.59375 23.6875 35.46875 26.046875 
Q 35.359375 28.421875 34.8125 30.609375 
Q 33.890625 34.125 31.5625 36.765625 
Q 29.25 39.40625 25.875 39.40625 
Q 22.515625 39.40625 20.09375 38.375 
Q 17.671875 37.359375 16.15625 35.984375 
Q 14.65625 34.625 13.484375 33.109375 
Q 12.3125 31.59375 12.015625 31.5 
L 10.890625 31.5 
Q 10.640625 31.5 10.265625 31.8125 
Q 9.90625 32.125 9.90625 32.421875 
L 9.90625 65.828125 
Q 9.90625 66.0625 10.21875 66.328125 
Q 10.546875 66.609375 10.890625 66.609375 
L 11.1875 66.609375 
Q 17.921875 63.375 25.484375 63.375 
Q 32.90625 63.375 39.796875 66.609375 
L 40.09375 66.609375 
Q 40.4375 66.609375 40.71875 66.359375 
Q 41.015625 66.109375 41.015625 65.828125 
L 41.015625 64.890625 
Q 41.015625 64.40625 40.828125 64.40625 
Q 37.40625 59.859375 32.25 57.3125 
Q 27.09375 54.78125 21.578125 54.78125 
Q 17.578125 54.78125 13.375 55.90625 
L 13.375 37.015625 
Q 16.703125 39.703125 19.3125 40.84375 
Q 21.921875 42 25.984375 42 
Q 31.5 42 35.859375 38.8125 
Q 40.234375 35.640625 42.578125 30.53125 
Q 44.921875 25.4375 44.921875 20.125 
Q 44.921875 14.109375 41.96875 8.984375 
Q 39.015625 3.859375 33.9375 0.828125 
Q 28.859375 -2.203125 22.90625 -2.203125 
Q 17.96875 -2.203125 13.84375 0.328125 
Q 9.71875 2.875 7.34375 7.171875 
Q 4.984375 11.46875 4.984375 16.3125 
Q 4.984375 18.5625 6.4375 19.96875 
Q 7.90625 21.390625 10.109375 21.390625 
Q 12.3125 21.390625 13.796875 19.9375 
Q 15.28125 18.5 15.28125 16.3125 
Q 15.28125 14.15625 13.796875 12.671875 
Q 12.3125 11.1875 10.109375 11.1875 
Q 9.765625 11.1875 9.328125 11.25 
Q 8.890625 11.328125 8.6875 11.375 
" id="Cmr10-35"/>
     </defs>
     <g transform="translate(440.090625 428.735446429)scale(0.2 -0.2)">
      <use transform="translate(0.0 38.3734375)scale(0.7)" xlink:href="#Cmr10-32"/>
      <use transform="translate(0.0 -39.503125)scale(0.7)" xlink:href="#Cmr10-35"/>
      <path d="M 0 13.373437 
L 0 19.623437 
L 35 19.623437 
L 35 13.373437 
L 0 13.373437 
z
"/>
     </g>
    </g>
   </g>
   <g id="text_10">
    <g clip-path="url(#pa2303a5d40)">
     <!-- $\frac{3}{5}$ -->
     <g transform="translate(568.090625 428.835446429)scale(0.2 -0.2)">
      <use transform="translate(0.0 39.3734375)scale(0.7)" xlink:href="#Cmr10-33"/>
      <use transform="translate(0.0 -40.045312499999994)scale(0.7)" xlink:href="#Cmr10-35"/>
      <path d="M 0 12.83125 
L 0 19.08125 
L 35 19.08125 
L 35 12.83125 
L 0 12.83125 
z
"/>
     </g>
    </g>
   </g>
   <g id="text_11">
    <g clip-path="url(#pa2303a5d40)">
     <!-- $\frac{3}{4}$ -->
     <g transform="translate(696.090625 428.935446429)scale(0.2 -0.2)">
      <use transform="translate(0.0 39.3734375)scale(0.7)" xlink:href="#Cmr10-33"/>
      <use transform="translate(0.0 -40.045312499999994)scale(0.7)" xlink:href="#Cmr10-34"/>
      <path d="M 0 12.83125 
L 0 19.08125 
L 35 19.08125 
L 35 12.83125 
L 0 12.83125 
z
"/>
     </g>
    </g>
   </g>
   <g id="text_12">
    <g clip-path="url(#pa2303a5d40)">
     <!-- $\frac{4}{3}$ -->
     <g transform="translate(824.090625 428.735446429)scale(0.2 -0.2)">
      <use transform="translate(0.0 38.3734375)scale(0.7)" xlink:href="#Cmr10-34"/>
      <use transform="translate(0.0 -39.503125)scale(0.7)" xlink:href="#Cmr10-33"/>
      <path d="M 0 13.373437 
L 0 19.623437 
L 35 19.623437 
L 35 13.373437 
L 0 13.373437 
z
"/>
     </g>
    </g>
   </g>
   <g id="text_13">
    <g clip-path="url(#pa2303a5d40)">
     <!-- $\frac{5}{3}$ -->
     <g transform="translate(952.090625 428.835446429)scale(0.2 -0.2)">
      <use transform="translate(0.0 39.3734375)scale(0.7)" xlink:href="#Cmr10-35"/>
      <use transform="translate(0.0 -40.045312499999994)scale(0.7)" xlink:href="#Cmr10-33"/>
      <path d="M 0 12.83125 
L 0 19.08125 
L 35 19.08125 
L 35 12.83125 
L 0 12.83125 
z
"/>
     </g>
    </g>
   </g>
   <g id="text_14">
    <g clip-path="url(#pa2303a5d40)">
     <!-- $\frac{5}{2}$ -->
     <g transform="translate(1080.090625 428.935446429)scale(0.2 -0.2)">
      <use transform="translate(0.0 39.3734375)scale(0.7)" xlink:href="#Cmr10-35"/>
      <use transform="translate(0.0 -40.045312499999994)scale(0.7)" xlink:href="#Cmr10-32"/>
      <path d="M 0 12.83125 
L 0 19.08125 
L 35 19.08125 
L 35 12.83125 
L 0 12.83125 
z
"/>
     </g>
    </g>
   </g>
   <g id="text_15">
    <g clip-path="url(#pa2303a5d40)">
     <!-- $\frac{4}{1}$ -->
     <g transform="translate(1208.090625 428.835446429)scale(0.2 -0.2)">
      <use transform="translate(0.0 38.3734375)scale(0.7)" xlink:href="#Cmr10-34"/>
      <use transform="translate(0.0 -39.503125)scale(0.7)" xlink:href="#Cmr10-31"/>
      <path d="M 0 13.373437 
L 0 19.623437 
L 35 19.623437 
L 35 13.373437 
L 0 13.373437 
z
"/>
     </g>
    </g>
   </g>
   <g id="text_16">
    <g clip-path="url(#pa2303a5d40)">
     <!-- $\frac{1}{5}$ -->
     <g transform="translate(280.090625 531.592589286)scale(0.2 -0.2)">
      <use transform="translate(0.0 38.3734375)scale(0.7)" xlink:href="#Cmr10-31"/>
      <use transform="translate(0.0 -39.503125)scale(0.7)" xlink:href="#Cmr10-35"/>
      <path d="M 0 13.373437 
L 0 19.623437 
L 35 19.623437 
L 35 13.373437 
L 0 13.373437 
z
"/>
     </g>
    </g>
   </g>
   <g id="text_17">
    <g clip-path="url(#pa2303a5d40)">
     <!-- $\frac{2}{7}$ -->
     <defs>
      <path d="M 17.390625 2.59375 
Q 17.390625 8.15625 18.359375 13.46875 
Q 19.34375 18.796875 21.21875 24 
Q 23.09375 29.203125 25.75 34.203125 
Q 28.421875 39.203125 31.59375 43.609375 
L 40.71875 56.296875 
L 29.296875 56.296875 
Q 11.53125 56.296875 10.984375 55.8125 
Q 9.671875 54.203125 8.5 46.578125 
L 5.609375 46.578125 
L 8.890625 67.578125 
L 11.8125 67.578125 
L 11.8125 67.28125 
Q 11.8125 65.484375 17.921875 64.9375 
Q 24.03125 64.40625 29.890625 64.40625 
L 48.484375 64.40625 
L 48.484375 61.8125 
Q 48.484375 61.71875 48.453125 61.671875 
Q 48.4375 61.625 48.390625 61.53125 
L 34.625 42.1875 
Q 29.546875 34.671875 28.265625 25.484375 
Q 27 16.3125 27 2.59375 
Q 27 0.640625 25.578125 -0.78125 
Q 24.171875 -2.203125 22.21875 -2.203125 
Q 20.21875 -2.203125 18.796875 -0.78125 
Q 17.390625 0.640625 17.390625 2.59375 
" id="Cmr10-37"/>
     </defs>
     <g transform="translate(344.090625 531.492589286)scale(0.2 -0.2)">
      <use transform="translate(0.0 38.3734375)scale(0.7)" xlink:href="#Cmr10-32"/>
      <use transform="translate(0.0 -40.181250000000006)scale(0.7)" xlink:href="#Cmr10-37"/>
      <path d="M 0 13.373437 
L 0 19.623437 
L 35 19.623437 
L 35 13.373437 
L 0 13.373437 
z
"/>
     </g>
    </g>
   </g>
   <g id="text_18">
    <g clip-path="url(#pa2303a5d40)">
     <!-- $\frac{3}{8}$ -->
     <defs>
      <path d="M 4.203125 15.1875 
Q 4.203125 21.1875 8.15625 25.796875 
Q 12.109375 30.421875 18.3125 33.5 
L 14.59375 35.890625 
Q 11.1875 38.140625 9.03125 41.875 
Q 6.890625 45.609375 6.890625 49.703125 
Q 6.890625 54.5 9.40625 58.34375 
Q 11.921875 62.203125 16.09375 64.40625 
Q 20.265625 66.609375 25 66.609375 
Q 29.4375 66.609375 33.5625 64.796875 
Q 37.703125 62.984375 40.359375 59.609375 
Q 43.015625 56.25 43.015625 51.609375 
Q 43.015625 48.25 41.421875 45.359375 
Q 39.84375 42.484375 37.078125 40.1875 
Q 34.328125 37.890625 31.203125 36.28125 
L 36.921875 32.625 
Q 40.875 30.03125 43.28125 25.828125 
Q 45.703125 21.625 45.703125 17 
Q 45.703125 11.578125 42.796875 7.125 
Q 39.890625 2.6875 35.109375 0.234375 
Q 30.328125 -2.203125 25 -2.203125 
Q 19.828125 -2.203125 15.015625 -0.09375 
Q 10.203125 2 7.203125 5.984375 
Q 4.203125 9.96875 4.203125 15.1875 
M 9.625 15.1875 
Q 9.625 11.234375 11.796875 7.953125 
Q 13.96875 4.6875 17.53125 2.828125 
Q 21.09375 0.984375 25 0.984375 
Q 30.8125 0.984375 35.546875 4.375 
Q 40.28125 7.765625 40.28125 13.375 
Q 40.28125 15.28125 39.515625 17.15625 
Q 38.765625 19.046875 37.421875 20.578125 
Q 36.078125 22.125 34.421875 23.09375 
L 21 31.78125 
Q 17.875 30.125 15.25 27.578125 
Q 12.640625 25.046875 11.125 21.875 
Q 9.625 18.703125 9.625 15.1875 
M 16.5 45.703125 
L 28.609375 37.890625 
Q 32.8125 40.328125 35.5 43.796875 
Q 38.1875 47.265625 38.1875 51.609375 
Q 38.1875 54.984375 36.296875 57.78125 
Q 34.421875 60.59375 31.390625 62.15625 
Q 28.375 63.71875 24.90625 63.71875 
Q 21.875 63.71875 18.796875 62.546875 
Q 15.71875 61.375 13.71875 59.046875 
Q 11.71875 56.734375 11.71875 53.609375 
Q 11.71875 48.921875 16.5 45.703125 
" id="Cmr10-38"/>
     </defs>
     <g transform="translate(408.090625 531.692589286)scale(0.2 -0.2)">
      <use transform="translate(0.0 39.3734375)scale(0.7)" xlink:href="#Cmr10-33"/>
      <use transform="translate(0.0 -40.045312499999994)scale(0.7)" xlink:href="#Cmr10-38"/>
      <path d="M 0 12.83125 
L 0 19.08125 
L 35 19.08125 
L 35 12.83125 
L 0 12.83125 
z
"/>
     </g>
    </g>
   </g>
   <g id="text_19">
    <g clip-path="url(#pa2303a5d40)">
     <!-- $\frac{3}{7}$ -->
     <g transform="translate(472.090625 531.592589286)scale(0.2 -0.2)">
      <use transform="translate(0.0 39.3734375)scale(0.7)" xlink:href="#Cmr10-33"/>
      <use transform="translate(0.0 -40.72343749999999)scale(0.7)" xlink:href="#Cmr10-37"/>
      <path d="M 0 12.83125 
L 0 19.08125 
L 35 19.08125 
L 35 12.83125 
L 0 12.83125 
z
"/>
     </g>
    </g>
   </g>
   <g id="text_20">
    <g clip-path="url(#pa2303a5d40)">
     <!-- $\frac{4}{7}$ -->
     <g transform="translate(536.090625 531.492589286)scale(0.2 -0.2)">
      <use transform="translate(0.0 38.3734375)scale(0.7)" xlink:href="#Cmr10-34"/>
      <use transform="translate(0.0 -40.181250000000006)scale(0.7)" xlink:href="#Cmr10-37"/>
      <path d="M 0 13.373437 
L 0 19.623437 
L 35 19.623437 
L 35 13.373437 
L 0 13.373437 
z
"/>
     </g>
    </g>
   </g>
   <g id="text_21">
    <g clip-path="url(#pa2303a5d40)">
     <!-- $\frac{5}{8}$ -->
     <g transform="translate(600.090625 531.692589286)scale(0.2 -0.2)">
      <use transform="translate(0.0 39.3734375)scale(0.7)" xlink:href="#Cmr10-35"/>
      <use transform="translate(0.0 -40.045312499999994)scale(0.7)" xlink:href="#Cmr10-38"/>
      <path d="M 0 12.83125 
L 0 19.08125 
L 35 19.08125 
L 35 12.83125 
L 0 12.83125 
z
"/>
     </g>
    </g>
   </g>
   <g id="text_22">
    <g clip-path="url(#pa2303a5d40)">
     <!-- $\frac{5}{7}$ -->
     <g transform="translate(664.090625 531.592589286)scale(0.2 -0.2)">
      <use transform="translate(0.0 39.3734375)scale(0.7)" xlink:href="#Cmr10-35"/>
      <use transform="translate(0.0 -40.72343749999999)scale(0.7)" xlink:href="#Cmr10-37"/>
      <path d="M 0 12.83125 
L 0 19.08125 
L 35 19.08125 
L 35 12.83125 
L 0 12.83125 
z
"/>
     </g>
    </g>
   </g>
   <g id="text_23">
    <g clip-path="url(#pa2303a5d40)">
     <!-- $\frac{4}{5}$ -->
     <g transform="translate(728.090625 531.592589286)scale(0.2 -0.2)">
      <use transform="translate(0.0 38.3734375)scale(0.7)" xlink:href="#Cmr10-34"/>
      <use transform="translate(0.0 -39.503125)scale(0.7)" xlink:href="#Cmr10-35"/>
      <path d="M 0 13.373437 
L 0 19.623437 
L 35 19.623437 
L 35 13.373437 
L 0 13.373437 
z
"/>
     </g>
    </g>
   </g>
   <g id="text_24">
    <g clip-path="url(#pa2303a5d40)">
     <!-- $\frac{5}{4}$ -->
     <g transform="translate(792.090625 531.792589286)scale(0.2 -0.2)">
      <use transform="translate(0.0 39.3734375)scale(0.7)" xlink:href="#Cmr10-35"/>
      <use transform="translate(0.0 -40.045312499999994)scale(0.7)" xlink:href="#Cmr10-34"/>
      <path d="M 0 12.83125 
L 0 19.08125 
L 35 19.08125 
L 35 12.83125 
L 0 12.83125 
z
"/>
     </g>
    </g>
   </g>
   <g id="text_25">
    <g clip-path="url(#pa2303a5d40)">
     <!-- $\frac{7}{5}$ -->
     <g transform="translate(856.090625 531.792589286)scale(0.2 -0.2)">
      <use transform="translate(0.0 39.6953125)scale(0.7)" xlink:href="#Cmr10-37"/>
      <use transform="translate(0.0 -39.72343749999999)scale(0.7)" xlink:href="#Cmr10-35"/>
      <path d="M 0 13.153125 
L 0 19.403125 
L 35 19.403125 
L 35 13.153125 
L 0 13.153125 
z
"/>
     </g>
    </g>
   </g>
   <g id="text_26">
    <g clip-path="url(#pa2303a5d40)">
     <!-- $\frac{8}{5}$ -->
     <g transform="translate(920.090625 531.692589286)scale(0.2 -0.2)">
      <use transform="translate(0.0 39.3734375)scale(0.7)" xlink:href="#Cmr10-38"/>
      <use transform="translate(0.0 -40.045312499999994)scale(0.7)" xlink:href="#Cmr10-35"/>
      <path d="M 0 12.83125 
L 0 19.08125 
L 35 19.08125 
L 35 12.83125 
L 0 12.83125 
z
"/>
     </g>
    </g>
   </g>
   <g id="text_27">
    <g clip-path="url(#pa2303a5d40)">
     <!-- $\frac{7}{4}$ -->
     <g transform="translate(984.090625 531.892589286)scale(0.2 -0.2)">
      <use transform="translate(0.0 39.6953125)scale(0.7)" xlink:href="#Cmr10-37"/>
      <use transform="translate(0.0 -39.72343749999999)scale(0.7)" xlink:href="#Cmr10-34"/>
      <path d="M 0 13.153125 
L 0 19.403125 
L 35 19.403125 
L 35 13.153125 
L 0 13.153125 
z
"/>
     </g>
    </g>
   </g>
   <g id="text_28">
    <g clip-path="url(#pa2303a5d40)">
     <!-- $\frac{7}{3}$ -->
     <g transform="translate(1048.090625 531.792589286)scale(0.2 -0.2)">
      <use transform="translate(0.0 39.6953125)scale(0.7)" xlink:href="#Cmr10-37"/>
      <use transform="translate(0.0 -39.72343749999999)scale(0.7)" xlink:href="#Cmr10-33"/>
      <path d="M 0 13.153125 
L 0 19.403125 
L 35 19.403125 
L 35 13.153125 
L 0 13.153125 
z
"/>
     </g>
    </g>
   </g>
   <g id="text_29">
    <g clip-path="url(#pa2303a5d40)">
     <!-- $\frac{8}{3}$ -->
     <g transform="translate(1112.090625 531.692589286)scale(0.2 -0.2)">
      <use transform="translate(0.0 39.3734375)scale(0.7)" xlink:href="#Cmr10-38"/>
      <use transform="translate(0.0 -40.045312499999994)scale(0.7)" xlink:href="#Cmr10-33"/>
      <path d="M 0 12.83125 
L 0 19.08125 
L 35 19.08125 
L 35 12.83125 
L 0 12.83125 
z
"/>
     </g>
    </g>
   </g>
   <g id="text_30">
    <g clip-path="url(#pa2303a5d40)">
     <!-- $\frac{7}{2}$ -->
     <g transform="translate(1176.090625 531.892589286)scale(0.2 -0.2)">
      <use transform="translate(0.0 39.6953125)scale(0.7)" xlink:href="#Cmr10-37"/>
      <use transform="translate(0.0 -39.72343749999999)scale(0.7)" xlink:href="#Cmr10-32"/>
      <path d="M 0 13.153125 
L 0 19.403125 
L 35 19.403125 
L 35 13.153125 
L 0 13.153125 
z
"/>
     </g>
    </g>
   </g>
   <g id="text_31">
    <g clip-path="url(#pa2303a5d40)">
     <!-- $\frac{5}{1}$ -->
     <g transform="translate(1240.090625 531.792589286)scale(0.2 -0.2)">
      <use transform="translate(0.0 39.3734375)scale(0.7)" xlink:href="#Cmr10-35"/>
      <use transform="translate(0.0 -40.045312499999994)scale(0.7)" xlink:href="#Cmr10-31"/>
      <path d="M 0 12.83125 
L 0 19.08125 
L 35 19.08125 
L 35 12.83125 
L 0 12.83125 
z
"/>
     </g>
    </g>
   </g>
   <g id="text_32">
    <g clip-path="url(#pa2303a5d40)">
     <!-- $\frac{1}{6}$ -->
     <defs>
      <path d="M 25 -2.203125 
Q 18.796875 -2.203125 14.640625 1.09375 
Q 10.5 4.390625 8.21875 9.640625 
Q 5.953125 14.890625 5.078125 20.65625 
Q 4.203125 26.421875 4.203125 32.328125 
Q 4.203125 40.234375 7.28125 48.1875 
Q 10.359375 56.15625 16.328125 61.375 
Q 22.3125 66.609375 30.515625 66.609375 
Q 33.9375 66.609375 36.890625 65.3125 
Q 39.84375 64.015625 41.53125 61.5 
Q 43.21875 58.984375 43.21875 55.421875 
Q 43.21875 53.375 41.828125 51.984375 
Q 40.4375 50.59375 38.375 50.59375 
Q 36.421875 50.59375 35 52 
Q 33.59375 53.421875 33.59375 55.421875 
Q 33.59375 57.375 35 58.78125 
Q 36.421875 60.203125 38.375 60.203125 
L 38.921875 60.203125 
Q 37.640625 62.015625 35.328125 62.859375 
Q 33.015625 63.71875 30.515625 63.71875 
Q 27.484375 63.71875 24.921875 62.390625 
Q 22.359375 61.078125 20.3125 58.828125 
Q 18.265625 56.59375 16.890625 53.875 
Q 15.53125 51.171875 14.765625 47.703125 
Q 14.015625 44.234375 13.8125 41.203125 
Q 13.625 38.1875 13.625 33.59375 
Q 15.375 37.703125 18.59375 40.3125 
Q 21.828125 42.921875 25.875 42.921875 
Q 30.328125 42.921875 33.984375 41.109375 
Q 37.640625 39.3125 40.28125 36.109375 
Q 42.921875 32.90625 44.3125 28.796875 
Q 45.703125 24.703125 45.703125 20.515625 
Q 45.703125 14.65625 43.09375 9.34375 
Q 40.484375 4.046875 35.734375 0.921875 
Q 31 -2.203125 25 -2.203125 
M 25 0.984375 
Q 28.859375 0.984375 31.203125 2.734375 
Q 33.546875 4.5 34.640625 7.390625 
Q 35.75 10.296875 36.015625 13.25 
Q 36.28125 16.21875 36.28125 20.515625 
Q 36.28125 26.171875 35.734375 30.171875 
Q 35.203125 34.1875 32.8125 37.234375 
Q 30.421875 40.28125 25.484375 40.28125 
Q 21.4375 40.28125 18.828125 37.546875 
Q 16.21875 34.8125 15.015625 30.640625 
Q 13.8125 26.46875 13.8125 22.609375 
Q 13.8125 21.296875 13.921875 20.609375 
Q 13.921875 20.453125 13.890625 20.359375 
Q 13.875 20.265625 13.8125 20.125 
Q 13.8125 15.828125 14.6875 11.421875 
Q 15.578125 7.03125 18.0625 4 
Q 20.5625 0.984375 25 0.984375 
" id="Cmr10-36"/>
     </defs>
     <g transform="translate(264.090625 634.449732143)scale(0.2 -0.2)">
      <use transform="translate(0.0 38.3734375)scale(0.7)" xlink:href="#Cmr10-31"/>
      <use transform="translate(0.0 -39.503125)scale(0.7)" xlink:href="#Cmr10-36"/>
      <path d="M 0 13.373437 
L 0 19.623437 
L 35 19.623437 
L 35 13.373437 
L 0 13.373437 
z
"/>
     </g>
    </g>
   </g>
   <g id="text_33">
    <g clip-path="url(#pa2303a5d40)">
     <!-- $\frac{2}{9}$ -->
     <defs>
      <path d="M 11.28125 4.203125 
Q 14.015625 0.984375 20.796875 0.984375 
Q 24.609375 0.984375 27.90625 3.5625 
Q 31.203125 6.15625 33.015625 9.90625 
Q 35.109375 14.15625 35.6875 18.96875 
Q 36.28125 23.78125 36.28125 30.90625 
Q 34.578125 26.859375 31.375 24.265625 
Q 28.171875 21.6875 24.03125 21.6875 
Q 18.21875 21.6875 13.640625 24.828125 
Q 9.078125 27.984375 6.640625 33.125 
Q 4.203125 38.28125 4.203125 44.09375 
Q 4.203125 50.09375 6.9375 55.296875 
Q 9.671875 60.5 14.5 63.546875 
Q 19.34375 66.609375 25.484375 66.609375 
Q 31.546875 66.609375 35.625 63.3125 
Q 39.703125 60.015625 41.84375 54.8125 
Q 44 49.609375 44.84375 43.796875 
Q 45.703125 37.984375 45.703125 32.328125 
Q 45.703125 24.609375 42.875 16.578125 
Q 40.046875 8.546875 34.40625 3.171875 
Q 28.765625 -2.203125 20.796875 -2.203125 
Q 14.890625 -2.203125 10.78125 0.578125 
Q 6.6875 3.375 6.6875 8.984375 
Q 6.6875 11.03125 8.078125 12.421875 
Q 9.46875 13.8125 11.53125 13.8125 
Q 13.53125 13.8125 14.921875 12.421875 
Q 16.3125 11.03125 16.3125 8.984375 
Q 16.3125 7.03125 14.890625 5.609375 
Q 13.484375 4.203125 11.53125 4.203125 
z
M 24.421875 24.3125 
Q 28.515625 24.3125 31.125 27.0625 
Q 33.734375 29.828125 34.90625 33.921875 
Q 36.078125 38.03125 36.078125 42.09375 
L 36.078125 44 
L 36.078125 44.390625 
Q 36.078125 51.90625 33.875 57.8125 
Q 31.6875 63.71875 25.484375 63.71875 
Q 21.53125 63.71875 19.0625 61.984375 
Q 16.609375 60.25 15.4375 57.375 
Q 14.265625 54.5 13.9375 51.21875 
Q 13.625 47.953125 13.625 44.09375 
Q 13.625 38.421875 14.15625 34.421875 
Q 14.703125 30.421875 17.09375 27.359375 
Q 19.484375 24.3125 24.421875 24.3125 
" id="Cmr10-39"/>
     </defs>
     <g transform="translate(296.090625 634.449732143)scale(0.2 -0.2)">
      <use transform="translate(0.0 38.3734375)scale(0.7)" xlink:href="#Cmr10-32"/>
      <use transform="translate(0.0 -39.503125)scale(0.7)" xlink:href="#Cmr10-39"/>
      <path d="M 0 13.373437 
L 0 19.623437 
L 35 19.623437 
L 35 13.373437 
L 0 13.373437 
z
"/>
     </g>
    </g>
   </g>
   <g id="text_34">
    <g clip-path="url(#pa2303a5d40)">
     <!-- $\frac{3}{11}$ -->
     <g transform="translate(324.590625 634.649732143)scale(0.2 -0.2)">
      <use transform="translate(18.0 39.3734375)scale(0.7)" xlink:href="#Cmr10-33"/>
      <use transform="translate(0.0 -40.045312499999994)scale(0.7)" xlink:href="#Cmr10-31"/>
      <use transform="translate(35.0 -40.045312499999994)scale(0.7)" xlink:href="#Cmr10-31"/>
      <path d="M 0 12.83125 
L 0 19.08125 
L 70 19.08125 
L 70 12.83125 
L 0 12.83125 
z
"/>
     </g>
    </g>
   </g>
   <g id="text_35">
    <g clip-path="url(#pa2303a5d40)">
     <!-- $\frac{3}{10}$ -->
     <defs>
      <path d="M 25 -2.203125 
Q 12.75 -2.203125 8.328125 7.875 
Q 3.90625 17.96875 3.90625 31.890625 
Q 3.90625 40.578125 5.484375 48.234375 
Q 7.078125 55.90625 11.78125 61.25 
Q 16.5 66.609375 25 66.609375 
Q 31.59375 66.609375 35.78125 63.375 
Q 39.984375 60.15625 42.1875 55.046875 
Q 44.390625 49.953125 45.1875 44.109375 
Q 46 38.28125 46 31.890625 
Q 46 23.296875 44.40625 15.796875 
Q 42.828125 8.296875 38.1875 3.046875 
Q 33.546875 -2.203125 25 -2.203125 
M 25 0.390625 
Q 30.5625 0.390625 33.296875 6.09375 
Q 36.03125 11.8125 36.671875 18.75 
Q 37.3125 25.6875 37.3125 33.5 
Q 37.3125 41.015625 36.671875 47.359375 
Q 36.03125 53.71875 33.3125 58.859375 
Q 30.609375 64.015625 25 64.015625 
Q 19.34375 64.015625 16.609375 58.828125 
Q 13.875 53.65625 13.234375 47.328125 
Q 12.59375 41.015625 12.59375 33.5 
Q 12.59375 27.9375 12.859375 23 
Q 13.140625 18.0625 14.3125 12.8125 
Q 15.484375 7.5625 18.09375 3.96875 
Q 20.703125 0.390625 25 0.390625 
" id="Cmr10-30"/>
     </defs>
     <g transform="translate(356.590625 634.549732143)scale(0.2 -0.2)">
      <use transform="translate(18.0 39.3734375)scale(0.7)" xlink:href="#Cmr10-33"/>
      <use transform="translate(0.0 -40.045312499999994)scale(0.7)" xlink:href="#Cmr10-31"/>
      <use transform="translate(35.0 -40.045312499999994)scale(0.7)" xlink:href="#Cmr10-30"/>
      <path d="M 0 12.83125 
L 0 19.08125 
L 70 19.08125 
L 70 12.83125 
L 0 12.83125 
z
"/>
     </g>
    </g>
   </g>
   <g id="text_36">
    <g clip-path="url(#pa2303a5d40)">
     <!-- $\frac{4}{11}$ -->
     <g transform="translate(388.590625 634.549732143)scale(0.2 -0.2)">
      <use transform="translate(18.0 38.3734375)scale(0.7)" xlink:href="#Cmr10-34"/>
      <use transform="translate(0.0 -39.503125)scale(0.7)" xlink:href="#Cmr10-31"/>
      <use transform="translate(35.0 -39.503125)scale(0.7)" xlink:href="#Cmr10-31"/>
      <path d="M 0 13.373437 
L 0 19.623437 
L 70 19.623437 
L 70 13.373437 
L 0 13.373437 
z
"/>
     </g>
    </g>
   </g>
   <g id="text_37">
    <g clip-path="url(#pa2303a5d40)">
     <!-- $\frac{5}{13}$ -->
     <g transform="translate(420.590625 634.549732143)scale(0.2 -0.2)">
      <use transform="translate(18.0 39.3734375)scale(0.7)" xlink:href="#Cmr10-35"/>
      <use transform="translate(0.0 -40.045312499999994)scale(0.7)" xlink:href="#Cmr10-31"/>
      <use transform="translate(35.0 -40.045312499999994)scale(0.7)" xlink:href="#Cmr10-33"/>
      <path d="M 0 12.83125 
L 0 19.08125 
L 70 19.08125 
L 70 12.83125 
L 0 12.83125 
z
"/>
     </g>
    </g>
   </g>
   <g id="text_38">
    <g clip-path="url(#pa2303a5d40)">
     <!-- $\frac{5}{12}$ -->
     <g transform="translate(452.590625 634.649732143)scale(0.2 -0.2)">
      <use transform="translate(18.0 39.3734375)scale(0.7)" xlink:href="#Cmr10-35"/>
      <use transform="translate(0.0 -40.045312499999994)scale(0.7)" xlink:href="#Cmr10-31"/>
      <use transform="translate(35.0 -40.045312499999994)scale(0.7)" xlink:href="#Cmr10-32"/>
      <path d="M 0 12.83125 
L 0 19.08125 
L 70 19.08125 
L 70 12.83125 
L 0 12.83125 
z
"/>
     </g>
    </g>
   </g>
   <g id="text_39">
    <g clip-path="url(#pa2303a5d40)">
     <!-- $\frac{4}{9}$ -->
     <g transform="translate(488.090625 634.449732143)scale(0.2 -0.2)">
      <use transform="translate(0.0 38.3734375)scale(0.7)" xlink:href="#Cmr10-34"/>
      <use transform="translate(0.0 -39.503125)scale(0.7)" xlink:href="#Cmr10-39"/>
      <path d="M 0 13.373437 
L 0 19.623437 
L 35 19.623437 
L 35 13.373437 
L 0 13.373437 
z
"/>
     </g>
    </g>
   </g>
   <g id="text_40">
    <g clip-path="url(#pa2303a5d40)">
     <!-- $\frac{5}{9}$ -->
     <g transform="translate(520.090625 634.549732143)scale(0.2 -0.2)">
      <use transform="translate(0.0 39.3734375)scale(0.7)" xlink:href="#Cmr10-35"/>
      <use transform="translate(0.0 -40.045312499999994)scale(0.7)" xlink:href="#Cmr10-39"/>
      <path d="M 0 12.83125 
L 0 19.08125 
L 35 19.08125 
L 35 12.83125 
L 0 12.83125 
z
"/>
     </g>
    </g>
   </g>
   <g id="text_41">
    <g clip-path="url(#pa2303a5d40)">
     <!-- $\frac{7}{12}$ -->
     <g transform="translate(548.590625 634.749732143)scale(0.2 -0.2)">
      <use transform="translate(18.0 39.6953125)scale(0.7)" xlink:href="#Cmr10-37"/>
      <use transform="translate(0.0 -39.72343749999999)scale(0.7)" xlink:href="#Cmr10-31"/>
      <use transform="translate(35.0 -39.72343749999999)scale(0.7)" xlink:href="#Cmr10-32"/>
      <path d="M 0 13.153125 
L 0 19.403125 
L 70 19.403125 
L 70 13.153125 
L 0 13.153125 
z
"/>
     </g>
    </g>
   </g>
   <g id="text_42">
    <g clip-path="url(#pa2303a5d40)">
     <!-- $\frac{8}{13}$ -->
     <g transform="translate(580.590625 634.549732143)scale(0.2 -0.2)">
      <use transform="translate(18.0 39.3734375)scale(0.7)" xlink:href="#Cmr10-38"/>
      <use transform="translate(0.0 -40.045312499999994)scale(0.7)" xlink:href="#Cmr10-31"/>
      <use transform="translate(35.0 -40.045312499999994)scale(0.7)" xlink:href="#Cmr10-33"/>
      <path d="M 0 12.83125 
L 0 19.08125 
L 70 19.08125 
L 70 12.83125 
L 0 12.83125 
z
"/>
     </g>
    </g>
   </g>
   <g id="text_43">
    <g clip-path="url(#pa2303a5d40)">
     <!-- $\frac{7}{11}$ -->
     <g transform="translate(612.590625 634.749732143)scale(0.2 -0.2)">
      <use transform="translate(18.0 39.6953125)scale(0.7)" xlink:href="#Cmr10-37"/>
      <use transform="translate(0.0 -39.72343749999999)scale(0.7)" xlink:href="#Cmr10-31"/>
      <use transform="translate(35.0 -39.72343749999999)scale(0.7)" xlink:href="#Cmr10-31"/>
      <path d="M 0 13.153125 
L 0 19.403125 
L 70 19.403125 
L 70 13.153125 
L 0 13.153125 
z
"/>
     </g>
    </g>
   </g>
   <g id="text_44">
    <g clip-path="url(#pa2303a5d40)">
     <!-- $\frac{7}{10}$ -->
     <g transform="translate(644.590625 634.649732143)scale(0.2 -0.2)">
      <use transform="translate(18.0 39.6953125)scale(0.7)" xlink:href="#Cmr10-37"/>
      <use transform="translate(0.0 -39.72343749999999)scale(0.7)" xlink:href="#Cmr10-31"/>
      <use transform="translate(35.0 -39.72343749999999)scale(0.7)" xlink:href="#Cmr10-30"/>
      <path d="M 0 13.153125 
L 0 19.403125 
L 70 19.403125 
L 70 13.153125 
L 0 13.153125 
z
"/>
     </g>
    </g>
   </g>
   <g id="text_45">
    <g clip-path="url(#pa2303a5d40)">
     <!-- $\frac{8}{11}$ -->
     <g transform="translate(676.590625 634.649732143)scale(0.2 -0.2)">
      <use transform="translate(18.0 39.3734375)scale(0.7)" xlink:href="#Cmr10-38"/>
      <use transform="translate(0.0 -40.045312499999994)scale(0.7)" xlink:href="#Cmr10-31"/>
      <use transform="translate(35.0 -40.045312499999994)scale(0.7)" xlink:href="#Cmr10-31"/>
      <path d="M 0 12.83125 
L 0 19.08125 
L 70 19.08125 
L 70 12.83125 
L 0 12.83125 
z
"/>
     </g>
    </g>
   </g>
   <g id="text_46">
    <g clip-path="url(#pa2303a5d40)">
     <!-- $\frac{7}{9}$ -->
     <g transform="translate(712.090625 634.649732143)scale(0.2 -0.2)">
      <use transform="translate(0.0 39.6953125)scale(0.7)" xlink:href="#Cmr10-37"/>
      <use transform="translate(0.0 -39.72343749999999)scale(0.7)" xlink:href="#Cmr10-39"/>
      <path d="M 0 13.153125 
L 0 19.403125 
L 35 19.403125 
L 35 13.153125 
L 0 13.153125 
z
"/>
     </g>
    </g>
   </g>
   <g id="text_47">
    <g clip-path="url(#pa2303a5d40)">
     <!-- $\frac{5}{6}$ -->
     <g transform="translate(744.090625 634.549732143)scale(0.2 -0.2)">
      <use transform="translate(0.0 39.3734375)scale(0.7)" xlink:href="#Cmr10-35"/>
      <use transform="translate(0.0 -40.045312499999994)scale(0.7)" xlink:href="#Cmr10-36"/>
      <path d="M 0 12.83125 
L 0 19.08125 
L 35 19.08125 
L 35 12.83125 
L 0 12.83125 
z
"/>
     </g>
    </g>
   </g>
   <g id="text_48">
    <g clip-path="url(#pa2303a5d40)">
     <!-- $\frac{6}{5}$ -->
     <g transform="translate(776.090625 634.549732143)scale(0.2 -0.2)">
      <use transform="translate(0.0 39.3734375)scale(0.7)" xlink:href="#Cmr10-36"/>
      <use transform="translate(0.0 -40.045312499999994)scale(0.7)" xlink:href="#Cmr10-35"/>
      <path d="M 0 12.83125 
L 0 19.08125 
L 35 19.08125 
L 35 12.83125 
L 0 12.83125 
z
"/>
     </g>
    </g>
   </g>
   <g id="text_49">
    <g clip-path="url(#pa2303a5d40)">
     <!-- $\frac{9}{7}$ -->
     <g transform="translate(808.090625 634.449732143)scale(0.2 -0.2)">
      <use transform="translate(0.0 39.3734375)scale(0.7)" xlink:href="#Cmr10-39"/>
      <use transform="translate(0.0 -40.72343749999999)scale(0.7)" xlink:href="#Cmr10-37"/>
      <path d="M 0 12.83125 
L 0 19.08125 
L 35 19.08125 
L 35 12.83125 
L 0 12.83125 
z
"/>
     </g>
    </g>
   </g>
   <g id="text_50">
    <g clip-path="url(#pa2303a5d40)">
     <!-- $\frac{11}{8}$ -->
     <g transform="translate(836.590625 634.449732143)scale(0.2 -0.2)">
      <use transform="translate(0.0 38.3734375)scale(0.7)" xlink:href="#Cmr10-31"/>
      <use transform="translate(35.0 38.3734375)scale(0.7)" xlink:href="#Cmr10-31"/>
      <use transform="translate(18.0 -39.503125)scale(0.7)" xlink:href="#Cmr10-38"/>
      <path d="M 0 13.373437 
L 0 19.623437 
L 70 19.623437 
L 70 13.373437 
L 0 13.373437 
z
"/>
     </g>
    </g>
   </g>
   <g id="text_51">
    <g clip-path="url(#pa2303a5d40)">
     <!-- $\frac{10}{7}$ -->
     <g transform="translate(868.590625 634.449732143)scale(0.2 -0.2)">
      <use transform="translate(0.0 39.3734375)scale(0.7)" xlink:href="#Cmr10-31"/>
      <use transform="translate(35.0 39.3734375)scale(0.7)" xlink:href="#Cmr10-30"/>
      <use transform="translate(18.0 -40.72343749999999)scale(0.7)" xlink:href="#Cmr10-37"/>
      <path d="M 0 12.83125 
L 0 19.08125 
L 70 19.08125 
L 70 12.83125 
L 0 12.83125 
z
"/>
     </g>
    </g>
   </g>
   <g id="text_52">
    <g clip-path="url(#pa2303a5d40)">
     <!-- $\frac{11}{7}$ -->
     <g transform="translate(900.590625 634.349732143)scale(0.2 -0.2)">
      <use transform="translate(0.0 38.3734375)scale(0.7)" xlink:href="#Cmr10-31"/>
      <use transform="translate(35.0 38.3734375)scale(0.7)" xlink:href="#Cmr10-31"/>
      <use transform="translate(18.0 -40.181250000000006)scale(0.7)" xlink:href="#Cmr10-37"/>
      <path d="M 0 13.373437 
L 0 19.623437 
L 70 19.623437 
L 70 13.373437 
L 0 13.373437 
z
"/>
     </g>
    </g>
   </g>
   <g id="text_53">
    <g clip-path="url(#pa2303a5d40)">
     <!-- $\frac{13}{8}$ -->
     <g transform="translate(932.590625 634.549732143)scale(0.2 -0.2)">
      <use transform="translate(0.0 39.3734375)scale(0.7)" xlink:href="#Cmr10-31"/>
      <use transform="translate(35.0 39.3734375)scale(0.7)" xlink:href="#Cmr10-33"/>
      <use transform="translate(18.0 -40.045312499999994)scale(0.7)" xlink:href="#Cmr10-38"/>
      <path d="M 0 12.83125 
L 0 19.08125 
L 70 19.08125 
L 70 12.83125 
L 0 12.83125 
z
"/>
     </g>
    </g>
   </g>
   <g id="text_54">
    <g clip-path="url(#pa2303a5d40)">
     <!-- $\frac{12}{7}$ -->
     <g transform="translate(964.590625 634.349732143)scale(0.2 -0.2)">
      <use transform="translate(0.0 38.3734375)scale(0.7)" xlink:href="#Cmr10-31"/>
      <use transform="translate(35.0 38.3734375)scale(0.7)" xlink:href="#Cmr10-32"/>
      <use transform="translate(18.0 -40.181250000000006)scale(0.7)" xlink:href="#Cmr10-37"/>
      <path d="M 0 13.373437 
L 0 19.623437 
L 70 19.623437 
L 70 13.373437 
L 0 13.373437 
z
"/>
     </g>
    </g>
   </g>
   <g id="text_55">
    <g clip-path="url(#pa2303a5d40)">
     <!-- $\frac{9}{5}$ -->
     <g transform="translate(1000.090625 634.549732143)scale(0.2 -0.2)">
      <use transform="translate(0.0 39.3734375)scale(0.7)" xlink:href="#Cmr10-39"/>
      <use transform="translate(0.0 -40.045312499999994)scale(0.7)" xlink:href="#Cmr10-35"/>
      <path d="M 0 12.83125 
L 0 19.08125 
L 35 19.08125 
L 35 12.83125 
L 0 12.83125 
z
"/>
     </g>
    </g>
   </g>
   <g id="text_56">
    <g clip-path="url(#pa2303a5d40)">
     <!-- $\frac{9}{4}$ -->
     <g transform="translate(1032.090625 634.649732143)scale(0.2 -0.2)">
      <use transform="translate(0.0 39.3734375)scale(0.7)" xlink:href="#Cmr10-39"/>
      <use transform="translate(0.0 -40.045312499999994)scale(0.7)" xlink:href="#Cmr10-34"/>
      <path d="M 0 12.83125 
L 0 19.08125 
L 35 19.08125 
L 35 12.83125 
L 0 12.83125 
z
"/>
     </g>
    </g>
   </g>
   <g id="text_57">
    <g clip-path="url(#pa2303a5d40)">
     <!-- $\frac{12}{5}$ -->
     <g transform="translate(1060.590625 634.449732143)scale(0.2 -0.2)">
      <use transform="translate(0.0 38.3734375)scale(0.7)" xlink:href="#Cmr10-31"/>
      <use transform="translate(35.0 38.3734375)scale(0.7)" xlink:href="#Cmr10-32"/>
      <use transform="translate(18.0 -39.503125)scale(0.7)" xlink:href="#Cmr10-35"/>
      <path d="M 0 13.373437 
L 0 19.623437 
L 70 19.623437 
L 70 13.373437 
L 0 13.373437 
z
"/>
     </g>
    </g>
   </g>
   <g id="text_58">
    <g clip-path="url(#pa2303a5d40)">
     <!-- $\frac{13}{5}$ -->
     <g transform="translate(1092.590625 634.549732143)scale(0.2 -0.2)">
      <use transform="translate(0.0 39.3734375)scale(0.7)" xlink:href="#Cmr10-31"/>
      <use transform="translate(35.0 39.3734375)scale(0.7)" xlink:href="#Cmr10-33"/>
      <use transform="translate(18.0 -40.045312499999994)scale(0.7)" xlink:href="#Cmr10-35"/>
      <path d="M 0 12.83125 
L 0 19.08125 
L 70 19.08125 
L 70 12.83125 
L 0 12.83125 
z
"/>
     </g>
    </g>
   </g>
   <g id="text_59">
    <g clip-path="url(#pa2303a5d40)">
     <!-- $\frac{11}{4}$ -->
     <g transform="translate(1124.590625 634.549732143)scale(0.2 -0.2)">
      <use transform="translate(0.0 38.3734375)scale(0.7)" xlink:href="#Cmr10-31"/>
      <use transform="translate(35.0 38.3734375)scale(0.7)" xlink:href="#Cmr10-31"/>
      <use transform="translate(18.0 -39.503125)scale(0.7)" xlink:href="#Cmr10-34"/>
      <path d="M 0 13.373437 
L 0 19.623437 
L 70 19.623437 
L 70 13.373437 
L 0 13.373437 
z
"/>
     </g>
    </g>
   </g>
   <g id="text_60">
    <g clip-path="url(#pa2303a5d40)">
     <!-- $\frac{10}{3}$ -->
     <g transform="translate(1156.590625 634.549732143)scale(0.2 -0.2)">
      <use transform="translate(0.0 39.3734375)scale(0.7)" xlink:href="#Cmr10-31"/>
      <use transform="translate(35.0 39.3734375)scale(0.7)" xlink:href="#Cmr10-30"/>
      <use transform="translate(18.0 -40.045312499999994)scale(0.7)" xlink:href="#Cmr10-33"/>
      <path d="M 0 12.83125 
L 0 19.08125 
L 70 19.08125 
L 70 12.83125 
L 0 12.83125 
z
"/>
     </g>
    </g>
   </g>
   <g id="text_61">
    <g clip-path="url(#pa2303a5d40)">
     <!-- $\frac{11}{3}$ -->
     <g transform="translate(1188.590625 634.449732143)scale(0.2 -0.2)">
      <use transform="translate(0.0 38.3734375)scale(0.7)" xlink:href="#Cmr10-31"/>
      <use transform="translate(35.0 38.3734375)scale(0.7)" xlink:href="#Cmr10-31"/>
      <use transform="translate(18.0 -39.503125)scale(0.7)" xlink:href="#Cmr10-33"/>
      <path d="M 0 13.373437 
L 0 19.623437 
L 70 19.623437 
L 70 13.373437 
L 0 13.373437 
z
"/>
     </g>
    </g>
   </g>
   <g id="text_62">
    <g clip-path="url(#pa2303a5d40)">
     <!-- $\frac{9}{2}$ -->
     <g transform="translate(1224.090625 634.649732143)scale(0.2 -0.2)">
      <use transform="translate(0.0 39.3734375)scale(0.7)" xlink:href="#Cmr10-39"/>
      <use transform="translate(0.0 -40.045312499999994)scale(0.7)" xlink:href="#Cmr10-32"/>
      <path d="M 0 12.83125 
L 0 19.08125 
L 35 19.08125 
L 35 12.83125 
L 0 12.83125 
z
"/>
     </g>
    </g>
   </g>
   <g id="text_63">
    <g clip-path="url(#pa2303a5d40)">
     <!-- $\frac{6}{1}$ -->
     <g transform="translate(1256.090625 634.649732143)scale(0.2 -0.2)">
      <use transform="translate(0.0 39.3734375)scale(0.7)" xlink:href="#Cmr10-36"/>
      <use transform="translate(0.0 -40.045312499999994)scale(0.7)" xlink:href="#Cmr10-31"/>
      <path d="M 0 12.83125 
L 0 19.08125 
L 35 19.08125 
L 35 12.83125 
L 0 12.83125 
z
"/>
     </g>
    </g>
   </g>
  </g>
 </g>
 <defs>
  <clipPath id="pa2303a5d40">
   <rect height="720.0" width="1440.0" x="28.890625" y="13.006875"/>
  </clipPath>
 </defs>
</svg>
